<svg viewBox="0 0 300 400" xmlns="http://www.w3.org/2000/svg" role="img" aria-labelledby="title desc">
  <title id="title">Butterfly Meadow coloring page preview</title>
  <desc id="desc">Line art preview with a butterfly above flowers.</desc>
  <rect width="300" height="400" fill="#fffef5"/>
  <g fill="none" stroke="#3d3529" stroke-width="5" stroke-linecap="round" stroke-linejoin="round">
    <ellipse cx="105" cy="132" rx="44" ry="68" transform="rotate(-26 105 132)"/>
    <ellipse cx="195" cy="132" rx="44" ry="68" transform="rotate(26 195 132)"/>
    <ellipse cx="150" cy="158" rx="16" ry="68"/>
    <circle cx="150" cy="76" r="17"/>
    <path d="M137 62c-17-26-35-33-54-20"/>
    <path d="M163 62c17-26 35-33 54-20"/>
    <path d="M34 322c34-34 67-34 99 0s68 34 133 0"/>
    <path d="M76 310c8-42 20-65 36-88M224 310c-8-42-20-65-36-88"/>
  </g>
  <g fill="none" stroke="#3d3529" stroke-width="4">
    <circle cx="112" cy="216" r="17"/>
    <circle cx="188" cy="216" r="17"/>
    <circle cx="96" cy="236" r="17"/>
    <circle cx="204" cy="236" r="17"/>
  </g>
</svg>
