<svg viewBox="0 0 300 400" xmlns="http://www.w3.org/2000/svg" role="img" aria-labelledby="title desc">
  <title id="title">Woodland Walk coloring page preview</title>
  <desc id="desc">Line art preview with trees, hills, and a tiny cabin.</desc>
  <rect width="300" height="400" fill="#fffef5"/>
  <g fill="none" stroke="#3d3529" stroke-width="5" stroke-linecap="round" stroke-linejoin="round">
    <path d="M150 54 205 150H95Z"/>
    <path d="M114 150h72v72h-72z"/>
    <path d="M143 222v-42h26v42"/>
    <path d="M54 114c-22-44 16-78 52-50 31-34 82-5 58 50"/>
    <path d="M214 118c-24-48 18-84 58-54 26-25 58-7 52 30"/>
    <path d="M28 284c48-44 92-46 136-8s76 40 112 4"/>
    <path d="M52 336c68-28 128-28 196 0"/>
  </g>
  <g fill="none" stroke="#3d3529" stroke-width="4" stroke-linecap="round">
    <path d="M74 116v98M246 118v102"/>
    <path d="M124 186h18M158 186h18"/>
  </g>
</svg>
